<svg width="600" height="400" viewBox="0 0 600 400" fill="none" xmlns="http://www.w3.org/2000/svg"><rect width="600" height="400" fill="#EEEEEE"/><path fill-rule="evenodd" clip-rule="evenodd" d="M337.772 161.303C347.441 161.303 355.078 170.479 353.174 180.029C351.27 189.58 340.693 195.139 331.763 191.448C325.953 189.047 322.069 183.239 322.069 176.972C322.069 168.541 329.224 161.303 337.772 161.303ZM375.586 264H228.428C222.222 263.973 217.01 258.773 217 252.583V149.403C217.001 143.199 222.199 138.001 228.428 138H375.586C381.808 138.016 386.999 143.22 387 149.417V252.583C386.998 258.712 381.792 263.973 375.586 264ZM365.416 250.982L338.201 207.661C335.838 203.916 330.03 203.837 327.617 207.661L314.763 228.272L328.751 250.982H323.01L284.864 190.239C281.35 185.559 275.719 185.918 272.578 190.239L235.222 250.982H230.033V151.004H373.925V250.982H365.416Z" fill="#C2C2C2"/></svg>
