<svg width="48" height="48" viewBox="0 0 48 48" fill="none" xmlns="http://www.w3.org/2000/svg"><path d="M44.3955 41.5246L33.3347 30.4557C35.578 27.5886 36.797 24.0519 36.7968 20.4105C36.7968 11.3621 29.4401 4 20.3985 4C11.3568 4 4 11.3621 4 20.4105C4 29.4587 11.3568 36.8208 20.3985 36.8208C24.0369 36.8208 27.5705 35.6017 30.4363 33.3583L41.4971 44.4271C43.2845 46.2143 46.2905 43.4195 44.3955 41.5246ZM8.09961 20.4105C8.09961 13.6227 13.6156 8.10261 20.3985 8.10261C27.1813 8.10261 32.6973 13.6227 32.6973 20.4105C32.6973 27.1983 27.1813 32.7183 20.3985 32.7183C13.6156 32.7183 8.09961 27.1983 8.09961 20.4105Z" fill="white"/></svg>
