<svg width="492" height="211" viewBox="0 0 492 211" fill="none" xmlns="http://www.w3.org/2000/svg">
<path d="M145 0.5L0.5 145H297L145 0.5Z" fill="#A2A2A2"/>
<path d="M309.5 23.5L240.5 69.5L308.5 145H491.5L309.5 23.5Z" fill="#696969"/>
<path d="M1.30103 209.706V154.223H9.66973V203.746H41.7948V209.706H1.30103Z" fill="#4E4E4E"/>
<path d="M110.373 181.964C110.373 187.816 109.057 192.873 106.425 197.135C103.792 201.398 100.182 204.685 95.5925 206.997C91.0032 209.308 85.7615 210.464 79.8674 210.464C73.9733 210.464 68.7316 209.308 64.1423 206.997C59.553 204.685 55.9423 201.398 53.3102 197.135C50.6781 192.873 49.3621 187.816 49.3621 181.964C49.3621 176.113 50.6781 171.056 53.3102 166.793C55.9423 162.531 59.553 159.244 64.1423 156.932C68.7316 154.62 73.9733 153.464 79.8674 153.464C85.7615 153.464 91.0032 154.62 95.5925 156.932C100.182 159.244 103.792 162.531 106.425 166.793C109.057 171.056 110.373 176.113 110.373 181.964ZM102.274 181.964C102.274 177.16 101.273 173.106 99.2707 169.8C97.291 166.495 94.6026 163.994 91.2056 162.296C87.8312 160.598 84.0517 159.75 79.8674 159.75C75.683 159.75 71.8924 160.598 68.4954 162.296C65.1209 163.994 62.4326 166.495 60.4304 169.8C58.4507 173.106 57.4608 177.16 57.4608 181.964C57.4608 186.769 58.4507 190.823 60.4304 194.128C62.4326 197.433 65.1209 199.935 68.4954 201.633C71.8924 203.33 75.683 204.179 79.8674 204.179C84.0517 204.179 87.8312 203.33 91.2056 201.633C94.6026 199.935 97.291 197.433 99.2707 194.128C101.273 190.823 102.274 186.769 102.274 181.964Z" fill="#4E4E4E"/>
<path d="M171.687 171.561C170.945 169.737 169.966 168.103 168.751 166.658C167.559 165.195 166.13 163.949 164.466 162.919C162.823 161.89 160.956 161.104 158.864 160.562C156.772 160.02 154.477 159.75 151.98 159.75C147.886 159.75 144.163 160.598 140.811 162.296C137.459 163.994 134.793 166.495 132.813 169.8C130.833 173.106 129.843 177.16 129.843 181.964C129.843 186.769 130.845 190.823 132.847 194.128C134.849 197.433 137.56 199.935 140.979 201.633C144.399 203.33 148.246 204.179 152.52 204.179C156.479 204.179 159.966 203.502 162.981 202.147C166.018 200.775 168.38 198.842 170.067 196.35C171.777 193.839 172.5 191.395 172.5 188H154.41V181.964H180.731V187.924C180.731 192.494 179.516 196.467 177.086 199.845C174.679 203.222 171.35 205.841 167.098 207.701C162.868 209.543 158.009 210.464 152.52 210.464C146.401 210.464 141.024 209.308 136.39 206.997C131.778 204.685 128.179 201.398 125.592 197.135C123.027 192.873 121.745 187.816 121.745 181.964C121.745 177.576 122.476 173.629 123.938 170.125C125.423 166.604 127.515 163.606 130.215 161.131C132.914 158.657 136.109 156.76 139.798 155.442C143.488 154.124 147.548 153.464 151.98 153.464C155.624 153.464 159.021 153.907 162.171 154.792C165.343 155.659 168.166 156.896 170.641 158.503C173.138 160.093 175.219 161.998 176.884 164.22C178.548 166.423 179.696 168.87 180.326 171.561H171.687Z" fill="#4E4E4E"/>
<path d="M253.375 181.964C253.375 187.816 252.059 192.873 249.427 197.135C246.795 201.398 243.184 204.685 238.595 206.997C234.005 209.308 228.764 210.464 222.869 210.464C216.975 210.464 211.734 209.308 207.144 206.997C202.555 204.685 198.944 201.398 196.312 197.135C193.68 192.873 192.364 187.816 192.364 181.964C192.364 176.113 193.68 171.056 196.312 166.793C198.944 162.531 202.555 159.244 207.144 156.932C211.734 154.62 216.975 153.464 222.869 153.464C228.764 153.464 234.005 154.62 238.595 156.932C243.184 159.244 246.795 162.531 249.427 166.793C252.059 171.056 253.375 176.113 253.375 181.964ZM245.276 181.964C245.276 177.16 244.275 173.106 242.273 169.8C240.293 166.495 237.605 163.994 234.208 162.296C230.833 160.598 227.054 159.75 222.869 159.75C218.685 159.75 214.894 160.598 211.497 162.296C208.123 163.994 205.435 166.495 203.432 169.8C201.453 173.106 200.463 177.16 200.463 181.964C200.463 186.769 201.453 190.823 203.432 194.128C205.435 197.433 208.123 199.935 211.497 201.633C214.894 203.33 218.685 204.179 222.869 204.179C227.054 204.179 230.833 203.33 234.208 201.633C237.605 199.935 240.293 197.433 242.273 194.128C244.275 190.823 245.276 186.769 245.276 181.964Z" fill="#4E4E4E"/>
<path d="M260.79 160.183V154.223H312.622V160.183H290.891V209.706H282.522V160.183H260.79Z" fill="#4E4E4E"/>
<path d="M319.599 154.223H329.182L348.35 180.122H349.159L368.326 154.223H377.91L352.939 186.841V209.706H344.57V186.841L319.599 154.223Z" fill="#4E4E4E"/>
<path d="M388.734 209.706V154.223H412.085C417.507 154.223 421.939 155.009 425.381 156.58C428.845 158.133 431.41 160.237 433.074 162.892C434.739 165.547 435.571 168.509 435.571 171.778C435.571 175.047 434.739 178.018 433.074 180.691C431.432 183.364 428.89 185.495 425.448 187.085C422.006 188.656 417.597 189.442 412.22 189.442H395.483V183.481H411.95C415.662 183.481 418.643 182.967 420.892 181.937C423.142 180.908 424.773 179.517 425.785 177.765C426.82 175.995 427.338 174 427.338 171.778C427.338 169.557 426.82 167.57 425.785 165.818C424.773 164.066 423.131 162.693 420.859 161.7C418.587 160.689 415.572 160.183 411.815 160.183H397.102V209.706H388.734Z" fill="#4E4E4E"/>
<path d="M449.052 209.706V154.223H490.761V160.183H457.421V178.93H488.601V184.89H457.421V203.746H491.301V209.706H449.052Z" fill="#4E4E4E"/>
</svg>
