<svg width="27" height="28" viewBox="0 0 27 28" fill="none" xmlns="http://www.w3.org/2000/svg"><path d="M26.5675 25.0572L19.3728 17.8625C20.832 15.9989 21.6249 13.7001 21.6248 11.3332C21.6248 5.45184 16.8395 0.666504 10.9582 0.666504C5.07684 0.666504 0.291504 5.45184 0.291504 11.3332C0.291504 17.2145 5.07684 21.9998 10.9582 21.9998C13.3249 21.9998 15.6234 21.2074 17.4875 19.7492L24.6822 26.9438C24.9324 27.1938 25.2716 27.3342 25.6253 27.3341C25.979 27.334 26.3182 27.1934 26.5682 26.9432C26.8182 26.693 26.9586 26.3537 26.9584 26C26.9583 25.6463 26.8177 25.3072 26.5675 25.0572ZM2.95817 11.3332C2.95817 6.92117 6.54617 3.33317 10.9582 3.33317C15.3702 3.33317 18.9582 6.92117 18.9582 11.3332C18.9582 15.7452 15.3702 19.3332 10.9582 19.3332C6.54617 19.3332 2.95817 15.7452 2.95817 11.3332Z" fill="#888"/></svg>
